<?xml version="1.0" standalone="no"?>
<!DOCTYPE svg PUBLIC "-//W3C//DTD SVG 20010904//EN"
 "http://www.w3.org/TR/2001/REC-SVG-20010904/DTD/svg10.dtd">
<svg version="1.0" xmlns="http://www.w3.org/2000/svg"
 width="1000.000000pt" height="200.000000pt" viewBox="0 0 1000.000000 200.000000"
 preserveAspectRatio="xMidYMid meet">

<g transform="translate(0.000000,200.000000) scale(0.100000,-0.100000)"
fill="#000000" stroke="none">
<path d="M9634 1937 c-61 -91 -96 -167 -140 -300 -31 -94 -49 -132 -89 -185
-67 -88 -80 -91 -70 -17 4 32 15 77 26 102 24 56 24 60 -2 73 -16 9 -26 8 -44
-4 -24 -15 -25 -15 -40 14 -30 58 -99 32 -142 -54 -45 -88 -174 -248 -189
-233 -3 3 11 47 31 97 20 50 34 97 31 105 -2 7 -23 16 -45 20 -45 7 -49 14
-25 49 18 28 6 41 -30 32 -26 -6 -47 -45 -40 -73 4 -13 -10 -36 -45 -73 -28
-30 -53 -51 -57 -48 -3 4 4 36 16 73 24 71 22 95 -9 95 -13 0 -39 -25 -74 -72
-115 -155 -141 -138 -56 36 34 69 34 72 13 80 -25 10 -51 -11 -82 -66 -37 -65
-56 -147 -42 -183 16 -43 50 -32 114 35 53 55 57 58 51 31 -9 -40 9 -71 41
-71 34 0 71 28 112 82 28 38 37 44 63 40 16 -2 29 -5 29 -7 0 -1 -13 -32 -30
-68 -40 -89 -38 -144 5 -161 23 -9 98 46 136 99 l32 44 16 -32 c31 -62 79 -44
142 55 18 27 33 47 34 46 2 -2 -2 -26 -8 -53 -8 -40 -7 -57 4 -79 32 -65 74
-57 132 26 l34 48 -5 -70 c-5 -81 8 -122 44 -139 37 -17 80 7 136 77 59 73
138 206 138 233 0 31 -10 19 -75 -86 -66 -108 -129 -185 -151 -185 -19 0 -27
38 -20 101 12 106 32 151 129 295 153 229 178 334 78 334 -33 0 -40 -6 -77
-63z m96 13 c0 -10 -9 -43 -20 -71 -25 -64 -124 -233 -128 -221 -4 14 75 220
104 269 27 46 44 55 44 23z m-469 -371 c7 -30 2 -41 -44 -104 -51 -68 -52 -69
-55 -39 -2 17 7 55 18 85 41 105 68 124 81 58z"/>
<path d="M905 1979 c-235 -20 -453 -126 -621 -301 -313 -326 -367 -817 -132
-1199 196 -318 576 -508 936 -468 243 27 450 127 613 296 189 196 280 419 280
688 0 261 -94 494 -273 681 -164 171 -384 281 -596 299 -37 3 -78 7 -92 9 -14
1 -65 -1 -115 -5z m-13 -116 c-2 -27 -7 -50 -9 -53 -7 -8 -23 24 -23 48 0 12
-4 22 -10 22 -20 0 -10 19 13 23 12 2 25 5 28 6 4 0 4 -20 1 -46z m48 -3 c0
-52 -13 -67 -24 -27 -11 41 -7 77 9 77 11 0 15 -12 15 -50z m41 28 l2 -23 4
23 c4 20 33 33 33 15 0 -28 -23 -83 -34 -83 -14 0 -36 48 -36 76 0 24 30 15
31 -8z m107 -20 c5 -27 5 -47 -1 -53 -6 -7 -11 -6 -14 2 -3 8 -14 11 -30 7
-27 -7 -27 -4 -2 64 14 36 37 27 47 -20z m109 20 c15 -6 34 -10 42 -9 11 2 13
-7 8 -41 l-6 -43 16 38 c9 21 21 36 27 34 12 -5 12 -6 3 -52 l-6 -30 14 33
c16 34 18 35 53 26 25 -7 29 -35 7 -58 -8 -8 -11 -17 -7 -20 5 -3 20 6 32 19
38 41 53 33 46 -22 l-7 -48 20 33 c20 31 41 42 41 22 0 -6 -8 -22 -17 -36 -14
-22 -14 -27 -2 -34 7 -5 10 -12 6 -17 -4 -4 -16 -2 -25 5 -9 7 -25 15 -34 18
-10 4 -18 13 -18 21 0 10 -6 13 -15 9 -22 -8 -55 15 -56 39 -1 17 -2 17 -6 3
-4 -17 -33 -26 -33 -10 0 4 -12 9 -26 10 -40 3 -46 11 -40 51 5 26 4 32 -3 21
-6 -8 -11 -25 -11 -37 0 -13 -5 -23 -10 -23 -6 0 -15 10 -20 23 -7 18 -9 19
-9 4 -1 -11 -7 -17 -13 -14 -13 4 -13 29 -3 75 6 25 13 27 52 10z m-367 -38
c26 -50 25 -53 -5 -46 -14 4 -25 2 -25 -4 0 -5 -4 -10 -10 -10 -5 0 -10 23
-10 50 0 63 21 67 50 10z m-76 14 c9 -25 8 -27 -18 -20 -20 5 -23 3 -19 -14 6
-22 23 -38 23 -21 0 6 7 11 15 11 22 0 19 -27 -4 -40 -37 -19 -43 -14 -65 57
-5 17 -1 23 21 31 38 14 40 14 47 -4z m-70 -56 c19 -45 15 -52 -34 -65 -14 -3
-36 -15 -50 -25 -24 -19 -24 -19 -42 4 -28 37 -32 58 -11 73 27 21 39 18 62
-17 23 -37 28 -27 6 12 -18 32 -18 40 -1 40 7 0 19 -13 26 -30 7 -16 16 -30
21 -30 4 0 1 16 -7 35 -17 42 -17 45 0 45 8 0 21 -19 30 -42z m-164 -48 c0 -5
-4 -10 -10 -10 -5 0 -10 -5 -10 -11 0 -6 9 -8 20 -4 11 4 20 2 20 -4 0 -6 -4
-11 -10 -11 -5 0 -10 -5 -10 -11 0 -6 9 -8 20 -4 26 8 26 -11 1 -25 -27 -14
-27 -14 -52 26 -22 36 -22 37 -4 50 22 17 35 18 35 4z m665 -13 c144 -41 250
-102 351 -202 158 -155 229 -327 229 -550 0 -129 -11 -189 -56 -296 -76 -186
-233 -342 -420 -420 -288 -118 -615 -53 -834 166 -120 119 -190 248 -220 407
-80 423 203 831 631 908 66 12 257 4 319 -13z m370 -54 c-6 -27 -6 -27 13 -10
14 13 22 15 27 7 4 -6 5 -12 4 -14 -2 -1 -17 -12 -33 -24 -31 -23 -56 -29 -56
-12 0 6 7 26 14 45 18 42 41 48 31 8z m-1101 -16 c32 -42 33 -51 1 -45 -20 4
-23 2 -15 -7 8 -10 8 -15 -1 -20 -15 -10 -74 49 -64 64 3 7 15 9 25 6 15 -5
17 -2 13 15 -8 31 13 24 41 -13z m-100 -31 c6 2 25 -9 41 -26 l29 -30 -24 -25
-23 -24 -32 27 c-26 21 -32 32 -28 52 8 33 16 47 20 33 3 -7 10 -10 17 -7z
m1282 0 c3 -8 -2 -29 -11 -47 l-17 -32 27 21 c36 29 48 28 42 -4 -3 -18 -1
-22 6 -15 15 15 27 14 27 -1 0 -7 -14 -26 -32 -41 -21 -18 -25 -24 -11 -18 12
6 25 16 28 21 11 19 42 10 55 -15 11 -20 11 -28 1 -38 -9 -9 -13 -7 -17 11 -4
12 -10 22 -16 22 -5 0 -4 -9 2 -20 6 -11 8 -25 4 -31 -3 -6 7 -4 24 5 42 22
52 -4 10 -28 -38 -23 -30 -33 10 -12 27 14 42 13 42 -4 0 -4 -14 -13 -30 -20
-45 -19 -43 -25 6 -21 55 4 59 -15 10 -53 -35 -26 -52 -22 -40 8 4 10 1 16 -7
16 -17 0 -54 74 -45 89 4 6 1 9 -6 6 -17 -6 -69 70 -62 90 4 10 2 13 -8 10
-14 -6 -46 21 -47 40 -1 6 -7 10 -13 10 -23 0 -13 25 17 44 37 24 44 25 51 7z
m-1299 -82 c33 -25 43 -44 23 -44 -18 0 -70 43 -70 57 0 19 9 16 47 -13z m-40
-28 c-3 -6 -10 -10 -16 -8 -15 3 -14 -11 1 -26 14 -14 42 -16 33 -2 -11 17 5
32 21 19 12 -9 11 -16 -7 -40 l-20 -29 -34 23 c-39 25 -42 33 -20 64 16 22 50
21 42 -1z m-31 -67 c39 -24 38 -20 22 -54 -13 -29 -19 -30 -58 -10 -25 13 -30
13 -30 1 0 -7 14 -19 30 -26 17 -7 30 -16 30 -20 0 -16 -14 -18 -41 -5 -15 8
-35 12 -43 9 -21 -8 -20 7 2 50 19 39 29 43 58 21 22 -17 34 -19 34 -6 0 5
-13 14 -30 21 -30 12 -36 21 -23 33 9 10 12 9 49 -14z m-61 -135 c27 -11 35
-18 27 -26 -8 -8 -19 -8 -38 1 -17 7 -31 8 -36 3 -6 -6 4 -14 26 -22 44 -14
52 -47 9 -34 -16 4 -38 7 -51 7 -21 -1 -23 2 -17 26 4 14 10 27 15 29 5 2 6
10 3 18 -7 18 15 18 62 -2z m1659 -39 c9 -34 -1 -47 -32 -43 -15 2 -27 -3 -30
-11 -3 -9 2 -11 17 -7 11 3 30 8 40 11 15 5 21 -1 26 -26 8 -33 2 -44 -30 -53
-12 -3 -9 -4 8 -2 31 4 47 -12 26 -25 -8 -5 -27 -9 -44 -10 -34 -1 -27 -5 28
-14 49 -8 47 -29 -4 -49 -40 -16 -70 -13 -51 6 6 6 4 21 -6 41 -12 23 -12 32
-3 35 9 3 9 8 -2 21 -21 24 -29 81 -15 99 11 13 10 15 -4 9 -27 -10 -22 22 5
33 42 17 64 12 71 -15z m-1721 -52 c4 -3 1 -13 -5 -22 -9 -12 -7 -11 8 2 27
22 54 12 54 -19 0 -25 -19 -39 -41 -32 -8 3 -6 9 5 21 10 9 13 17 8 17 -5 0
-15 -7 -22 -15 -15 -18 -50 -20 -50 -2 1 43 23 70 43 50z m47 -90 c3 -2 -3
-11 -13 -18 -12 -8 -14 -15 -8 -20 20 -12 11 -25 -16 -25 -38 0 -73 11 -73 21
0 6 10 14 23 19 17 7 18 9 5 9 -10 1 -18 8 -18 17 0 14 8 15 48 9 26 -4 49 -9
52 -12z m-37 -73 c29 0 37 -17 12 -26 -26 -10 -85 5 -85 23 0 11 6 14 23 9 12
-3 34 -6 50 -6z m8 -225 c2 -28 1 -24 18 -83 9 -34 10 -47 0 -58 -10 -12 -9
-13 5 -8 10 4 16 1 16 -9 0 -16 -66 -44 -78 -33 -3 4 -1 16 6 26 9 15 9 18 -1
14 -9 -3 -17 9 -24 33 -16 55 -33 119 -33 126 0 7 28 14 63 16 22 1 27 -3 28
-24z m1754 -17 c-4 -18 -10 -37 -14 -43 -3 -5 -6 -17 -7 -25 -1 -8 -2 -23 -3
-32 0 -10 -8 -18 -17 -18 -13 0 -14 -3 -4 -15 10 -12 9 -16 -2 -20 -9 -4 -13
-15 -11 -29 3 -13 -2 -30 -11 -39 -9 -8 -16 -21 -16 -27 0 -27 -32 -70 -53
-71 -12 0 -16 -3 -9 -6 6 -2 12 -10 12 -16 -1 -19 -47 -70 -58 -63 -14 9 -33
-19 -26 -38 9 -23 -11 -20 -43 8 l-28 24 21 24 c36 41 103 152 128 213 13 32
32 62 42 66 11 4 13 8 7 8 -7 1 -13 8 -13 17 0 10 5 14 15 10 38 -15 48 -16
23 -1 -39 22 -36 45 5 46 l32 1 -27 11 c-41 16 -36 37 7 30 23 -4 35 -2 35 6
0 6 5 11 11 11 7 0 8 -12 4 -32z m-1683 -214 c10 -21 9 -27 -3 -35 -21 -13
-39 -11 -45 5 -3 8 -12 12 -19 10 -26 -11 -25 16 2 30 40 21 52 20 65 -10z
m31 -51 c4 -4 -4 -19 -18 -33 -21 -22 -23 -29 -12 -33 9 -3 17 2 20 14 3 10
10 19 16 19 11 0 81 -88 81 -102 0 -12 -41 -47 -56 -48 -7 0 -19 11 -28 24
-15 24 -14 26 11 45 14 12 21 21 15 21 -6 0 -13 8 -15 18 -3 11 -5 7 -6 -10 0
-15 -6 -30 -13 -34 -14 -9 -58 40 -58 65 0 11 -7 21 -15 25 -24 9 -17 24 13
29 48 7 58 7 65 0z m146 -189 c18 -21 20 -28 10 -42 -11 -14 -11 -15 1 -4 19
17 24 16 60 -14 22 -19 29 -32 24 -46 -5 -17 -3 -18 13 -7 15 9 26 8 51 -5 32
-17 46 -43 16 -32 -12 4 -14 1 -9 -14 5 -16 3 -19 -12 -13 -16 6 -16 5 -4 -10
18 -23 8 -32 -18 -15 -12 7 -19 19 -16 27 4 11 3 12 -10 1 -12 -10 -16 -9 -21
4 -3 9 -13 16 -22 16 -19 0 -52 29 -52 46 0 8 -6 11 -15 8 -18 -7 -20 7 -2 26
10 12 9 12 -5 1 -29 -22 -42 -2 -17 25 19 20 20 26 9 37 -10 10 -12 9 -6 -7 4
-13 2 -17 -8 -13 -7 3 -18 1 -24 -5 -6 -6 -16 -7 -22 -3 -8 5 -3 16 16 36 15
16 31 29 34 29 4 0 16 -12 29 -26z m1220 -11 c29 -17 37 -41 12 -35 -6 1 -11
-4 -11 -11 0 -8 -8 -21 -18 -31 -18 -15 -20 -15 -37 4 -12 14 -22 17 -30 10
-6 -5 -15 -7 -18 -3 -4 3 -7 2 -7 -4 0 -6 7 -16 15 -23 12 -10 15 -10 15 4 0
18 15 21 25 5 8 -12 -23 -49 -42 -49 -7 0 -13 -5 -13 -11 0 -6 -9 -9 -19 -6
-14 3 -18 1 -14 -9 3 -8 -1 -14 -11 -14 -9 0 -16 -4 -16 -8 0 -19 -231 -107
-256 -98 -7 3 -14 1 -16 -4 -2 -5 -22 -12 -44 -16 l-42 -6 -4 38 c-7 48 -3 52
47 55 22 2 47 6 55 10 8 4 46 17 84 29 70 23 85 19 86 -17 0 -7 4 -13 9 -13
18 0 22 19 9 40 -11 18 -10 23 7 36 11 8 32 18 47 21 15 3 26 9 25 13 -1 4 18
24 43 44 l45 36 23 -25 c26 -30 28 -26 7 14 -22 44 -6 52 44 24z m-979 -165
c0 -17 3 -19 12 -10 20 20 31 14 25 -15 -5 -28 -5 -28 10 -6 17 26 43 20 44
-11 1 -18 2 -18 6 -2 4 15 11 17 36 11 18 -3 39 -8 47 -9 10 -2 14 -13 12 -37
l-2 -34 14 33 c23 50 39 44 50 -20 6 -31 4 -38 -9 -38 -8 0 -15 5 -15 11 0 8
-4 8 -13 1 -14 -12 -57 -5 -57 8 0 5 -9 6 -20 3 -11 -3 -25 -3 -32 0 -7 2 -17
5 -23 7 -5 1 -16 7 -24 13 -7 7 -19 12 -25 13 -6 0 -19 2 -29 2 -14 2 -17 7
-12 22 8 24 -10 27 -19 3 -5 -11 -10 -13 -17 -6 -7 7 -5 22 7 47 20 41 34 47
34 14z m320 -91 c0 -44 27 -46 38 -3 10 39 37 46 46 12 3 -13 9 -32 13 -42 5
-14 2 -16 -20 -10 -17 4 -27 2 -27 -4 0 -7 -15 -10 -37 -8 -37 3 -38 4 -41 46
-2 33 0 42 12 42 11 0 16 -10 16 -33z"/>
<path d="M572 1755 c6 -14 13 -23 16 -21 7 7 -9 46 -18 46 -5 0 -4 -11 2 -25z"/>
<path d="M926 1674 c-3 -9 -6 -47 -6 -85 0 -38 -3 -69 -6 -69 -3 0 -29 20 -57
45 -55 48 -90 57 -106 26 -6 -10 -16 -48 -23 -85 -7 -36 -15 -66 -19 -66 -3 0
-20 20 -38 45 -45 62 -69 74 -93 45 -26 -32 -23 -51 17 -110 19 -29 35 -54 35
-58 0 -3 -40 -2 -90 1 -69 5 -90 4 -90 -6 0 -7 15 -45 34 -84 19 -39 32 -73
30 -76 -3 -2 -34 4 -70 14 -83 23 -113 13 -114 -37 0 -21 30 -41 88 -59 21 -6
32 -35 13 -35 -4 0 -30 -20 -57 -45 l-48 -45 57 -58 c31 -32 57 -60 57 -64 0
-3 -20 -11 -44 -17 -50 -12 -69 -31 -64 -62 5 -37 30 -45 94 -31 32 6 59 10
61 9 1 -2 -7 -33 -19 -69 -29 -89 -21 -98 78 -98 41 0 74 -4 74 -8 0 -4 -14
-27 -31 -50 -22 -30 -29 -50 -27 -74 3 -30 6 -33 38 -33 30 0 39 6 71 52 41
60 46 58 73 -22 9 -27 24 -62 34 -77 l18 -27 62 50 c34 27 63 49 63 47 1 -2 2
-25 4 -53 3 -66 12 -93 34 -100 46 -14 71 23 71 106 0 27 3 49 6 49 4 0 24
-16 45 -35 40 -36 78 -51 103 -42 8 3 24 33 37 66 12 34 24 61 28 61 3 -1 18
-19 34 -41 32 -47 50 -56 83 -41 30 14 32 56 4 92 -11 14 -20 30 -20 36 0 12
45 24 91 24 30 0 79 19 79 31 0 4 -9 37 -21 74 -11 37 -18 69 -16 72 3 2 26
-3 51 -11 82 -28 116 -17 116 35 0 33 -11 42 -77 63 -29 10 -53 20 -53 24 0 3
25 29 56 58 31 28 54 58 52 65 -2 8 -34 32 -71 54 -36 22 -66 43 -67 47 0 4
33 17 73 29 86 25 97 33 97 68 0 56 -31 62 -135 30 -37 -11 -69 -18 -71 -16
-3 2 11 39 31 82 19 43 33 81 29 84 -3 3 -46 8 -95 9 l-89 4 30 38 c57 72 61
130 9 143 -23 6 -60 -25 -105 -88 -26 -36 -34 -31 -45 32 -14 74 -28 101 -48
96 -10 -3 -45 -26 -77 -53 l-59 -49 -5 85 c-6 93 -13 104 -66 104 -20 0 -34
-6 -38 -16z m-58 -187 c48 -49 67 -104 50 -142 -15 -33 -2 -74 27 -87 53 -24
102 32 76 88 -9 19 -8 31 3 52 20 37 122 136 134 128 11 -7 31 -138 28 -181
-2 -20 -9 -31 -22 -34 -52 -9 -70 -65 -34 -101 40 -40 100 -14 100 44 1 45 48
66 145 66 41 0 75 -2 75 -5 0 -10 -71 -119 -93 -143 -16 -17 -28 -21 -49 -17
-21 5 -33 1 -53 -19 -31 -31 -32 -50 0 -81 29 -30 54 -32 85 -5 13 11 30 20
39 20 19 0 161 -78 161 -88 -1 -4 -22 -24 -48 -44 -56 -45 -112 -51 -155 -18
-49 39 -107 17 -107 -40 0 -39 37 -64 80 -55 18 4 30 3 30 -4 0 -5 9 -12 20
-16 19 -6 90 -126 90 -153 0 -10 -20 -12 -87 -10 l-88 3 -28 58 c-34 68 -56
83 -95 65 -21 -10 -28 -21 -30 -51 -3 -32 1 -39 27 -55 41 -23 48 -71 26 -162
-9 -39 -21 -70 -25 -70 -13 0 -130 130 -130 144 0 7 5 28 11 45 23 65 -32 112
-87 76 -24 -16 -26 -20 -19 -71 5 -43 3 -61 -10 -82 -19 -30 -106 -115 -112
-109 -7 8 -43 142 -43 164 0 21 7 31 49 65 30 25 28 73 -4 94 -39 26 -73 11
-95 -41 -16 -36 -25 -46 -57 -54 -49 -14 -143 -14 -143 -1 0 15 49 112 68 133
10 11 30 17 55 17 24 0 48 7 59 17 24 21 23 68 -2 93 -19 19 -22 19 -58 4 -63
-28 -87 -28 -139 0 -26 15 -59 35 -72 45 l-25 19 64 41 c71 46 116 53 144 22
36 -40 97 -34 111 10 9 27 -13 79 -34 80 -9 1 -29 2 -46 3 -27 1 -34 9 -72 81
-23 44 -42 84 -43 89 0 13 142 -3 168 -20 12 -8 30 -31 40 -52 13 -28 24 -38
45 -40 69 -8 91 75 30 113 -18 11 -34 26 -37 33 -5 11 11 159 20 190 5 18 30
3 82 -51z"/>
<path d="M347 1613 c-4 -3 2 -13 14 -21 26 -18 35 -10 11 11 -10 10 -22 14
-25 10z"/>
<path d="M1685 1480 c3 -5 8 -10 11 -10 2 0 4 5 4 10 0 6 -5 10 -11 10 -5 0
-7 -4 -4 -10z"/>
<path d="M1815 1200 c-7 -12 12 -12 40 0 18 8 17 9 -7 9 -15 1 -30 -3 -33 -9z"/>
<path d="M100 841 c0 -5 6 -12 13 -14 9 -4 8 -8 -3 -16 -8 -6 -10 -11 -5 -11
17 0 30 14 31 33 1 10 -5 17 -17 17 -10 0 -19 -4 -19 -9z"/>
<path d="M110 770 c0 -12 8 -12 35 0 18 8 17 9 -7 9 -16 1 -28 -3 -28 -9z"/>
<path d="M1796 661 c-3 -5 4 -11 16 -14 30 -8 35 -1 9 12 -11 6 -22 7 -25 2z"/>
<path d="M1774 604 c-18 -14 -18 -14 6 -3 31 14 36 19 24 19 -6 0 -19 -7 -30
-16z"/>
<path d="M1773 574 c-17 -7 -4 -34 16 -34 13 0 13 2 2 9 -7 5 -10 14 -7 20 8
12 7 12 -11 5z"/>
<path d="M1730 540 c0 -5 5 -10 11 -10 5 0 7 5 4 10 -3 6 -8 10 -11 10 -2 0
-4 -4 -4 -10z"/>
<path d="M1707 503 c-13 -12 -7 -25 6 -14 17 14 28 4 19 -17 -5 -14 -4 -15 10
-2 16 14 16 16 0 28 -18 14 -26 15 -35 5z"/>
<path d="M1660 440 c0 -5 5 -10 11 -10 5 0 7 5 4 10 -3 6 -8 10 -11 10 -2 0
-4 -4 -4 -10z"/>
<path d="M295 440 c-21 -23 -9 -26 18 -6 10 8 14 17 9 20 -5 3 -17 -3 -27 -14z"/>
<path d="M1423 243 c-7 -3 -13 -9 -13 -14 0 -4 7 -6 15 -3 8 4 15 2 15 -4 0
-6 -6 -13 -12 -15 -7 -3 -3 -6 10 -6 12 -1 22 2 22 7 -1 15 -26 39 -37 35z"/>
<path d="M1320 190 c-13 -8 -12 -10 3 -10 20 0 23 -16 5 -23 -7 -2 -11 -7 -8
-10 3 -3 12 -2 20 3 10 6 11 14 4 29 -7 15 -13 18 -24 11z"/>
<path d="M1241 164 c1 -18 18 -49 18 -35 1 8 8 11 20 8 14 -3 18 -1 14 9 -3 8
-9 14 -13 14 -5 0 -15 3 -24 6 -9 3 -16 2 -15 -2z"/>
<path d="M1207 146 c-3 -8 0 -19 7 -25 10 -9 12 -6 8 14 -5 29 -8 31 -15 11z"/>
<path d="M1133 134 c18 -6 24 -24 7 -24 -5 0 -10 -4 -10 -9 0 -5 9 -7 20 -4
29 8 21 38 -10 40 -15 1 -18 0 -7 -3z"/>
<path d="M776 153 c-3 -4 -6 -14 -6 -24 0 -12 6 -16 20 -12 11 3 20 7 20 10 0
10 -28 32 -34 26z"/>
<path d="M3324 1952 c-16 -11 -81 -113 -98 -154 l-15 -36 -91 -7 c-49 -4 -93
-11 -96 -16 -3 -5 33 -9 80 -9 47 0 86 -4 86 -9 0 -5 -14 -46 -31 -90 -32 -84
-53 -108 -128 -146 -27 -13 -35 -14 -42 -4 -13 22 -21 106 -14 149 6 38 6 40
-19 40 -16 0 -32 -9 -42 -25 -15 -23 -15 -35 -6 -98 6 -40 14 -81 17 -92 5
-17 -4 -28 -47 -57 -66 -46 -92 -86 -79 -122 13 -32 40 -46 91 -46 34 0 48 6
76 34 31 31 34 39 34 98 l1 63 46 28 c25 15 48 26 51 23 2 -3 -3 -44 -13 -91
-20 -96 -14 -127 30 -147 32 -15 46 -3 140 123 l72 96 30 -33 c38 -42 56 -43
95 -1 29 30 30 31 24 7 -4 -14 -9 -57 -13 -96 -5 -67 -4 -72 18 -88 13 -9 29
-16 37 -16 17 0 70 58 134 147 l52 73 11 -33 c17 -54 48 -49 115 21 l58 60 -5
-34 c-11 -67 48 -87 104 -34 18 17 34 30 35 30 2 0 2 -15 0 -34 -6 -48 15
-106 41 -115 36 -14 79 9 145 77 l62 64 29 -31 c36 -39 56 -39 89 -1 l26 30
12 -30 c8 -18 28 -37 49 -47 35 -17 37 -17 78 5 23 13 58 43 77 69 48 62 59
73 76 73 9 0 14 -10 14 -28 0 -29 16 -52 36 -52 7 0 26 21 42 48 17 26 42 61
56 77 l26 30 -17 -34 c-9 -19 -18 -56 -21 -81 -4 -40 -1 -51 19 -69 40 -37 58
-29 132 62 44 55 56 77 41 77 -3 0 -34 -25 -69 -55 -34 -30 -67 -55 -72 -55
-19 0 9 93 39 132 31 40 36 79 14 97 -22 18 -44 2 -96 -69 -25 -34 -53 -71
-62 -83 -17 -22 -18 -22 -12 13 4 19 19 58 35 86 20 38 25 54 16 63 -27 27
-45 11 -72 -60 -24 -61 -47 -91 -59 -78 -2 2 1 27 7 56 13 62 0 96 -46 120
-27 14 -32 13 -55 -4 -14 -11 -33 -33 -41 -49 -8 -16 -29 -37 -46 -45 -16 -9
-49 -44 -73 -79 -43 -64 -98 -114 -114 -104 -12 8 -2 48 27 106 24 47 24 48 4
58 -32 18 -56 3 -73 -45 -16 -49 -91 -147 -139 -182 -27 -20 -33 -21 -46 -9
-19 20 -2 127 36 221 34 84 59 100 49 31 -6 -38 -4 -46 8 -46 35 0 45 80 15
117 -34 40 -91 -1 -143 -105 -36 -72 -107 -155 -114 -134 -2 7 6 40 18 73 11
34 19 68 16 75 -10 26 -45 14 -73 -23 -50 -69 -114 -143 -124 -143 -19 0 -7
48 31 125 22 44 40 81 40 82 0 1 -9 7 -21 13 -27 15 -40 3 -81 -69 -55 -97
-221 -301 -234 -288 -12 11 26 151 74 279 63 167 59 161 119 164 29 1 57 5 63
9 23 14 7 20 -45 17 -30 -2 -55 -1 -55 3 0 10 50 96 76 130 30 40 30 53 -1 61
-39 10 -66 -15 -119 -109 -47 -85 -48 -86 -89 -89 -29 -2 -50 3 -69 16 -22 16
-30 17 -42 6 -9 -7 -14 -16 -11 -20 3 -5 1 -11 -4 -14 -5 -3 -7 -14 -4 -24 2
-10 -3 -24 -11 -31 -18 -15 -21 -37 -6 -46 12 -7 62 29 53 39 -3 3 2 15 12 26
13 15 31 20 66 20 l48 0 -30 -82 c-35 -96 -75 -161 -120 -194 -56 -41 -62 -7
-14 88 24 47 24 48 4 58 -32 18 -56 3 -73 -46 -15 -45 -117 -183 -175 -238
l-31 -30 0 32 c0 38 38 161 93 302 22 58 42 107 44 110 2 2 16 5 31 6 15 0 42
2 60 2 18 1 32 7 32 15 0 8 -15 11 -50 9 -28 -2 -50 0 -50 6 0 14 50 103 77
136 18 22 21 31 12 42 -12 15 -47 18 -65 6z m1335 -305 c-1 -53 -21 -111 -40
-115 -8 -1 -23 4 -34 11 -17 13 -18 19 -7 55 14 46 59 105 73 96 5 -3 9 -24 8
-47z m-59 -127 c27 0 25 -10 -10 -58 -32 -45 -57 -62 -89 -62 -29 0 -27 34 5
109 l27 61 23 -25 c13 -14 32 -25 44 -25z m-1680 -200 c-7 -18 -24 -33 -43
-39 -66 -23 -58 31 11 81 35 25 37 26 40 6 2 -11 -2 -33 -8 -48z"/>
<path d="M7066 1935 c-13 -14 -40 -58 -61 -99 l-37 -74 -89 -7 c-49 -4 -92
-11 -95 -16 -3 -5 33 -9 80 -9 47 0 86 -1 86 -3 0 -7 -48 -144 -61 -172 -23
-54 -111 -175 -126 -175 -20 0 -9 87 18 149 24 55 24 68 -1 81 -15 8 -26 7
-44 -5 -24 -16 -25 -16 -41 14 -27 53 -91 33 -137 -43 -69 -113 -191 -240
-212 -219 -12 12 -6 99 10 154 25 84 56 150 68 146 12 -5 12 -5 1 -54 -5 -25
-3 -33 7 -33 38 0 51 66 22 108 -34 49 -95 8 -147 -101 -34 -70 -99 -148 -110
-130 -3 4 5 38 17 75 13 37 20 72 16 79 -14 22 -56 0 -85 -42 -15 -23 -45 -61
-67 -85 -71 -77 -77 -52 -18 68 44 91 47 103 24 112 -26 10 -50 -11 -89 -76
-49 -85 -188 -263 -200 -258 -11 6 -12 73 -1 141 5 36 25 70 87 155 119 160
144 217 119 265 -18 33 -80 26 -118 -13 -33 -35 -88 -148 -118 -241 -19 -61
-24 -66 -44 -41 -55 66 -123 14 -164 -126 -20 -67 -8 -117 30 -126 24 -6 35 0
97 46 l27 22 0 -36 c0 -47 15 -82 40 -96 30 -16 58 5 116 87 27 38 58 80 70
96 l23 27 3 -47 c3 -44 5 -48 31 -51 22 -3 38 7 84 55 49 51 55 55 49 30 -17
-69 47 -90 109 -36 l35 31 0 -56 c0 -46 4 -61 23 -80 37 -36 71 -24 149 54
l66 66 6 -29 c14 -69 57 -76 109 -18 20 22 43 54 52 71 22 42 26 35 13 -23 -8
-39 -7 -53 9 -85 31 -63 64 -54 131 33 13 17 21 22 18 12 -3 -10 -9 -43 -12
-73 -6 -48 -4 -58 16 -79 13 -14 31 -25 41 -25 18 0 76 63 152 167 l45 63 17
-26 c9 -14 28 -30 42 -37 24 -11 29 -8 63 31 45 50 55 40 44 -44 -5 -44 -3
-55 15 -73 22 -22 51 -19 51 6 0 25 28 76 68 125 36 43 39 45 50 27 15 -23 68
-26 98 -5 20 14 21 13 20 -28 -2 -83 49 -101 107 -37 20 22 43 54 52 71 21 41
26 35 14 -19 -7 -30 -6 -54 1 -77 32 -97 96 -61 189 108 33 61 36 68 23 68 -5
0 -34 -38 -66 -85 -69 -101 -91 -110 -81 -32 4 28 16 72 26 96 24 55 24 68 -1
81 -15 8 -26 7 -44 -5 -24 -16 -25 -16 -41 14 -10 20 -23 31 -36 31 -32 0 -74
-29 -94 -64 -24 -43 -65 -85 -97 -102 -38 -20 -48 -18 -48 11 0 16 13 34 40
56 44 35 48 44 25 53 -26 10 -43 -4 -119 -94 l-74 -88 -7 57 c-13 108 -14 109
-50 93 -15 -7 -25 -20 -25 -32 0 -24 -85 -115 -99 -105 -17 10 -13 28 16 95
28 65 24 79 -19 80 -18 0 -48 -47 -48 -74 0 -15 -140 -196 -178 -230 -22 -19
-22 -19 -22 9 0 43 37 166 87 295 25 63 47 117 49 119 2 2 26 5 54 7 28 2 55
6 61 9 21 14 6 20 -41 17 -33 -3 -50 0 -50 8 0 14 44 92 77 136 17 23 20 33
11 42 -20 20 -57 14 -82 -13z m-1096 -104 c0 -15 -12 -50 -26 -77 -25 -47
-124 -193 -124 -183 0 15 60 180 80 219 41 82 70 99 70 41z m712 -250 c8 -29
4 -39 -37 -96 -59 -84 -70 -90 -62 -37 7 55 63 175 79 170 7 -3 16 -19 20 -37z
m1040 0 c8 -29 4 -39 -37 -96 -59 -84 -70 -90 -62 -37 7 55 63 175 79 170 7
-3 16 -19 20 -37z m-1992 -62 c0 -43 -16 -75 -57 -113 -45 -42 -63 -45 -63
-11 0 33 36 128 62 160 19 25 21 25 39 9 11 -9 19 -30 19 -45z"/>
<path d="M8317 1913 c-56 -89 -159 -353 -193 -493 -19 -78 -18 -107 5 -115 24
-7 51 4 51 21 0 21 42 144 49 144 3 -1 24 -40 46 -87 52 -111 134 -203 183
-203 23 0 43 10 72 36 44 40 58 78 18 50 -43 -30 -78 -21 -131 37 -49 51 -147
183 -147 197 0 4 12 10 28 13 15 3 50 21 77 38 28 18 53 32 57 31 14 -3 110
115 133 165 48 100 31 193 -34 193 -38 0 -136 -105 -226 -241 -21 -32 -34 -45
-38 -36 -6 16 59 160 94 206 19 26 21 34 11 56 -16 34 -28 32 -55 -12z m203
-67 c0 -39 -60 -144 -116 -206 -46 -49 -130 -107 -141 -96 -8 8 83 156 134
220 95 117 123 136 123 82z m-6 -158 c-17 -30 -77 -98 -82 -94 -2 3 15 28 39
55 44 51 56 61 43 39z"/>
<path d="M5410 1915 c-7 -18 -17 -25 -35 -25 -15 0 -35 -5 -46 -10 -27 -15 -8
-50 26 -50 14 0 25 -3 24 -7 0 -5 -17 -55 -37 -113 -34 -96 -39 -105 -64 -108
-31 -4 -37 -26 -12 -40 13 -7 10 -22 -22 -113 -52 -147 -52 -151 -14 -182 17
-15 40 -27 51 -27 31 0 91 34 147 85 83 75 67 84 -42 26 -51 -28 -96 -51 -100
-51 -13 0 -5 33 35 151 23 66 47 122 53 124 6 2 46 11 89 21 43 9 80 21 84 27
5 9 -111 1 -151 -10 -13 -4 -18 -1 -14 8 2 8 22 62 43 120 l38 106 81 17 c117
25 186 46 186 57 0 5 -3 9 -7 8 -5 0 -58 -6 -119 -13 -104 -11 -113 -11 -134
6 -30 25 -49 23 -60 -7z"/>
<path d="M2557 1906 c-3 -8 -34 -20 -69 -28 -43 -9 -63 -18 -63 -28 0 -11 12
-15 48 -15 26 0 47 -1 47 -2 0 -2 -21 -49 -46 -105 -70 -159 -126 -307 -129
-342 -2 -28 -6 -32 -46 -38 -61 -11 -70 -15 -63 -33 4 -9 18 -15 35 -15 37 0
251 50 264 61 5 5 -18 9 -58 9 -37 0 -67 3 -67 8 0 29 121 327 175 430 25 48
30 52 81 63 73 17 78 29 10 29 -30 0 -58 5 -61 10 -9 15 -52 12 -58 -4z"/>
<path d="M4651 1816 c-33 -64 -22 -74 29 -27 43 39 44 41 26 56 -27 21 -28 20
-55 -29z"/>
<path d="M4374 1778 c-4 -6 -8 -24 -9 -40 -2 -16 -10 -37 -19 -47 -32 -36 -10
-64 27 -34 13 10 22 23 20 29 -2 6 6 19 17 29 25 23 26 51 1 65 -25 13 -28 13
-37 -2z"/>
<path d="M7191 1777 c-6 -8 -8 -17 -5 -20 4 -3 -4 -27 -16 -52 -16 -33 -19
-50 -12 -57 15 -15 38 5 57 46 8 17 20 39 27 49 11 15 10 20 -6 33 -24 17 -31
18 -45 1z"/>
<path d="M2611 1609 c-33 -85 -39 -137 -19 -157 21 -21 36 -13 66 36 17 26 42
61 56 77 l26 30 -17 -34 c-9 -19 -18 -56 -21 -81 -4 -40 -1 -51 19 -69 40 -37
58 -29 132 62 44 55 56 77 41 77 -3 0 -34 -25 -69 -55 -34 -30 -67 -55 -72
-55 -19 0 9 93 39 132 31 40 36 79 14 97 -22 18 -44 2 -96 -69 -25 -34 -53
-71 -62 -83 -17 -22 -18 -22 -12 13 4 19 19 58 35 86 20 38 25 54 16 63 -27
27 -45 11 -76 -70z"/>
<path d="M4521 1161 c-24 -18 -24 -20 -15 -117 12 -129 2 -341 -21 -427 -20
-79 -13 -95 31 -80 21 7 34 23 49 59 79 191 281 466 390 531 19 10 19 12 3 28
-16 17 -19 16 -59 -16 -54 -43 -185 -208 -250 -316 -28 -45 -51 -83 -52 -83
-1 0 -2 87 -3 193 0 105 -3 204 -7 220 -9 32 -31 35 -66 8z"/>
<path d="M6910 1102 c-33 -36 -107 -190 -125 -264 -6 -25 -25 -40 -25 -20 0 4
-14 16 -30 26 -28 16 -33 16 -55 2 -13 -9 -31 -26 -40 -38 -75 -109 -166 -226
-179 -231 -23 -9 -20 11 15 94 44 104 43 111 -10 121 -55 9 -57 12 -37 43 19
28 14 45 -13 45 -28 0 -53 -35 -50 -68 3 -21 -8 -47 -35 -88 -44 -68 -75 -104
-89 -104 -14 0 2 109 23 158 11 23 17 49 14 57 -9 22 -35 27 -60 10 -22 -14
-24 -13 -35 8 -7 12 -17 25 -23 29 -36 24 -94 -12 -126 -76 -24 -52 -102 -136
-108 -118 -2 7 6 40 18 73 11 34 19 68 16 75 -10 26 -45 14 -73 -23 -50 -69
-114 -143 -124 -143 -19 0 -7 48 31 125 37 74 39 81 23 93 -9 6 -20 12 -23 12
-10 0 -34 -30 -62 -78 -20 -34 -148 -152 -165 -152 -2 0 10 27 27 60 34 67 37
85 14 94 -33 13 -45 3 -103 -81 -32 -49 -70 -99 -85 -112 l-26 -24 0 27 c0 39
57 142 107 195 34 35 47 43 68 38 31 -5 44 15 25 38 -17 21 -69 19 -106 -4
-18 -11 -57 -51 -87 -89 -51 -63 -125 -132 -142 -132 -17 0 10 90 42 137 34
51 35 54 19 78 -9 14 -20 25 -25 25 -13 0 -88 -86 -122 -139 -29 -44 -29 -45
-29 -15 0 28 26 90 52 127 11 14 10 19 -2 27 -8 6 -22 9 -30 7 -17 -3 -64
-111 -75 -171 -8 -45 -70 -136 -92 -136 -20 0 -9 86 19 152 11 26 18 55 14 63
-9 25 -35 29 -56 10 -11 -10 -21 -16 -23 -14 -2 2 -11 16 -20 32 -37 58 -119
11 -157 -91 -54 -143 -1 -226 83 -133 20 22 43 54 52 70 8 17 17 31 20 31 2 0
1 -24 -2 -54 -7 -70 2 -104 32 -118 32 -15 63 6 105 70 23 36 37 48 50 45 13
-4 28 9 53 49 20 29 45 64 57 78 l21 25 -14 -30 c-8 -17 -18 -52 -22 -78 -7
-42 -5 -51 16 -73 29 -31 53 -31 85 1 14 14 26 25 27 25 1 0 3 -11 3 -25 2
-35 31 -75 53 -75 18 0 62 43 108 105 26 35 29 24 8 -36 -11 -29 -37 -64 -78
-104 -121 -116 -156 -204 -103 -254 17 -16 33 -22 57 -19 44 4 75 56 129 221
42 125 44 128 99 175 80 69 84 71 76 29 -4 -20 -2 -44 4 -56 20 -36 51 -25
112 38 l57 59 -5 -34 c-11 -69 48 -87 104 -32 l33 32 0 -31 c0 -17 8 -41 18
-53 27 -33 63 -20 106 38 19 26 42 56 51 67 15 19 16 19 8 -5 -4 -14 -8 -46
-8 -72 0 -50 24 -88 56 -88 23 0 89 76 127 148 29 54 34 58 61 54 l30 -4 -20
-42 c-11 -22 -24 -48 -29 -57 -5 -9 -12 -32 -15 -51 -5 -28 -2 -40 17 -63 24
-27 25 -27 55 -12 17 9 54 42 82 74 51 57 51 57 51 27 0 -33 26 -64 52 -64 9
0 39 18 67 40 l51 40 -6 -29 c-8 -38 12 -98 37 -111 30 -17 53 2 130 107 l71
95 19 -31 c10 -17 30 -37 44 -43 22 -10 29 -8 54 16 l28 27 8 -28 c9 -38 23
-53 50 -53 25 0 83 59 110 110 21 41 26 35 14 -19 -7 -30 -6 -54 1 -77 32 -97
96 -61 189 108 33 61 36 68 23 68 -5 0 -34 -38 -66 -85 -69 -101 -91 -110 -81
-32 4 28 16 72 26 96 24 55 24 68 -1 81 -15 8 -26 7 -44 -5 -24 -16 -25 -16
-41 14 -27 53 -95 31 -136 -43 -12 -23 -37 -60 -56 -84 -73 -90 -103 -72 -58
34 29 69 26 83 -17 84 -16 0 -48 -46 -48 -69 0 -5 -30 -49 -66 -98 -118 -156
-131 -162 -119 -54 10 97 24 129 103 233 85 114 122 181 122 222 0 41 -16 56
-59 56 -27 0 -42 -8 -71 -38z m90 -33 c0 -36 -17 -71 -83 -169 -63 -92 -71
-102 -62 -70 42 141 114 288 135 275 6 -3 10 -20 10 -36z m-2087 -246 c7 -40
-8 -69 -73 -143 l-31 -35 4 42 c5 45 51 153 70 165 20 13 24 9 30 -29z m1248
-1 c7 -33 -14 -73 -75 -147 l-25 -30 -1 32 c0 60 59 188 83 180 6 -2 14 -18
18 -35z m1141 -1 c8 -29 4 -39 -37 -96 -59 -84 -70 -90 -62 -37 7 55 63 175
79 170 7 -3 16 -19 20 -37z m-544 -83 c-4 -41 -11 -53 -49 -87 -51 -47 -69
-51 -69 -16 0 33 36 128 62 160 20 25 21 25 40 8 16 -15 19 -27 16 -65z
m-1308 -260 c-46 -126 -91 -193 -114 -171 -15 15 -4 73 20 108 34 51 107 135
112 130 3 -2 -6 -33 -18 -67z"/>
<path d="M7091 1017 c-6 -8 -8 -17 -5 -20 4 -3 -4 -27 -16 -52 -16 -33 -19
-50 -12 -57 15 -15 38 5 57 46 8 17 20 39 27 49 11 15 10 20 -6 33 -24 17 -31
18 -45 1z"/>
<path d="M9210 140 c0 -33 4 -60 10 -60 6 0 10 27 10 60 0 33 -4 60 -10 60 -6
0 -10 -27 -10 -60z"/>
<path d="M2816 154 c-25 -24 -31 -64 -15 -93 12 -21 22 -26 54 -26 23 0 40 5
43 13 3 11 1 11 -17 0 -44 -27 -88 40 -57 87 19 29 43 32 62 8 12 -17 13 -16
14 5 0 19 -5 22 -34 22 -19 0 -42 -7 -50 -16z"/>
<path d="M2966 148 c-22 -30 -20 -81 2 -101 44 -40 102 -6 102 59 0 59 -72 88
-104 42z m78 -20 c20 -57 -29 -115 -61 -72 -16 22 -17 58 -2 85 15 29 51 21
63 -13z"/>
<path d="M3128 163 c7 -3 12 -26 12 -63 0 -37 -5 -60 -12 -63 -7 -3 1 -5 17
-5 17 0 24 2 18 5 -8 3 -13 24 -13 56 l0 52 35 -52 c50 -74 55 -74 55 1 0 42
4 66 13 69 6 3 -1 6 -18 6 -20 0 -25 -2 -17 -8 9 -5 12 -24 10 -52 l-3 -44
-34 53 c-24 37 -39 52 -55 51 -11 0 -15 -3 -8 -6z"/>
<path d="M3395 100 l0 -70 30 1 c17 1 22 3 13 6 -30 8 -21 38 15 48 28 9 32
14 32 45 0 34 -1 35 -45 38 l-45 3 0 -71z m73 31 c4 -23 -11 -41 -35 -41 -8 0
-13 14 -13 36 0 31 3 35 23 32 14 -2 23 -11 25 -27z"/>
<path d="M3582 153 c-5 -10 -15 -36 -22 -58 -7 -22 -17 -46 -23 -52 -7 -10 -4
-13 11 -13 13 0 19 6 18 18 -1 13 7 17 29 17 22 0 30 -4 29 -17 -1 -11 5 -18
17 -18 17 0 17 4 -6 65 -14 36 -25 68 -25 70 0 12 -20 3 -28 -12z m26 -40 c10
-31 10 -33 -13 -33 -22 0 -23 2 -12 35 6 19 11 34 12 32 1 -1 7 -17 13 -34z"/>
<path d="M3720 155 c-17 -20 -6 -42 30 -63 17 -9 29 -24 28 -32 -5 -22 -40
-25 -56 -4 -13 18 -14 18 -10 -1 4 -24 51 -33 74 -14 24 20 16 46 -22 68 -38
23 -41 44 -7 49 14 2 23 -3 26 -15 4 -14 5 -13 6 5 1 18 -4 22 -28 22 -16 0
-34 -7 -41 -15z"/>
<path d="M3870 150 c-40 -40 -14 -120 39 -120 37 0 61 28 61 73 0 62 -57 90
-100 47z m68 -2 c16 -16 16 -80 0 -96 -29 -29 -68 -2 -68 48 0 50 39 77 68 48z"/>
<path d="M4108 163 c7 -3 12 -26 12 -63 0 -37 -5 -60 -12 -63 -7 -3 5 -5 27
-5 22 0 32 2 23 5 -11 3 -18 14 -18 30 0 20 4 24 20 20 15 -4 20 0 20 13 0 13
-5 17 -20 13 -16 -4 -20 0 -20 21 0 21 5 26 24 26 13 0 27 -6 29 -12 3 -8 6
-6 6 5 1 14 -8 17 -51 16 -29 0 -47 -3 -40 -6z"/>
<path d="M4258 161 c10 -6 13 -26 10 -70 -3 -60 -2 -61 22 -60 14 0 19 3 13 6
-8 3 -13 26 -13 63 0 37 5 60 13 63 6 3 -4 6 -23 6 -23 0 -30 -2 -22 -8z"/>
<path d="M4368 163 c7 -3 12 -26 12 -63 0 -37 -5 -60 -12 -63 -7 -3 3 -5 22
-5 19 0 29 2 23 5 -7 2 -13 16 -13 29 0 33 21 30 42 -6 9 -17 24 -30 33 -30
13 0 12 5 -5 28 -18 25 -19 32 -9 55 18 39 -2 57 -60 56 -25 0 -40 -3 -33 -6z
m76 -19 c7 -19 -10 -44 -30 -44 -9 0 -14 11 -14 30 0 23 5 30 19 30 10 0 22
-7 25 -16z"/>
<path d="M4538 161 c16 -9 6 -112 -12 -123 -6 -4 3 -8 19 -8 17 0 25 4 18 8
-8 5 -9 24 -5 62 l7 54 18 -57 c10 -31 22 -57 27 -57 5 0 17 26 27 58 l17 57
7 -55 c5 -38 4 -57 -4 -62 -7 -5 -1 -8 15 -8 26 0 26 1 16 30 -5 17 -8 48 -6
70 3 35 1 40 -18 40 -17 0 -24 -10 -36 -52 l-15 -53 -17 53 c-15 45 -21 52
-44 52 -18 0 -23 -3 -14 -9z"/>
<path d="M4758 158 c16 -16 16 -100 0 -116 -9 -9 -1 -12 39 -12 49 0 74 13 58
28 -4 4 -10 1 -12 -5 -3 -7 -16 -13 -29 -13 -20 0 -24 5 -24 30 0 32 9 37 28
18 9 -9 12 -7 12 9 0 16 -5 20 -20 16 -16 -4 -20 0 -20 21 0 28 26 36 48 14 9
-9 12 -8 12 5 0 14 -10 17 -52 17 -40 0 -49 -3 -40 -12z"/>
<path d="M4995 100 c0 -68 1 -70 25 -70 18 0 21 3 12 9 -8 4 -12 19 -10 32 2
19 9 24 33 24 24 0 31 -5 33 -24 2 -13 -2 -28 -10 -32 -9 -6 -6 -9 12 -9 24 0
25 2 25 70 0 68 -1 70 -25 69 -14 0 -19 -3 -12 -6 6 -2 12 -16 12 -29 0 -21
-5 -24 -35 -24 -30 0 -35 3 -35 24 0 13 6 27 13 29 6 3 1 6 -13 6 -24 1 -25
-1 -25 -69z"/>
<path d="M5220 166 c0 -3 -11 -35 -25 -71 -23 -61 -23 -65 -5 -65 13 0 17 5
13 20 -5 17 0 20 27 20 27 0 32 -3 27 -20 -4 -16 0 -20 20 -20 17 0 22 4 16
12 -4 7 -17 37 -28 67 -11 30 -26 56 -32 59 -7 2 -13 1 -13 -2z m24 -48 c9
-35 8 -38 -14 -38 -11 0 -20 3 -20 8 0 19 13 52 20 52 4 0 10 -10 14 -22z"/>
<path d="M5360 150 c-26 -26 -26 -81 -2 -103 23 -21 78 -22 86 -2 3 8 1 15 -4
15 -6 0 -10 -5 -10 -11 0 -6 -12 -9 -27 -7 -34 4 -52 44 -37 86 11 33 64 46
64 16 0 -13 3 -15 11 -7 6 6 8 16 5 22 -12 18 -65 12 -86 -9z"/>
<path d="M5508 163 c7 -3 12 -26 12 -63 0 -37 -5 -60 -12 -63 -7 -3 -2 -6 12
-6 24 -1 25 1 25 69 0 68 -1 70 -25 69 -14 0 -19 -3 -12 -6z"/>
<path d="M5628 100 c-23 -64 -24 -70 -8 -70 13 0 17 6 13 20 -4 17 0 20 25 20
30 0 51 -24 29 -34 -7 -2 1 -5 17 -5 21 -1 26 2 18 12 -5 6 -18 38 -28 70 -10
31 -23 57 -29 57 -7 0 -24 -31 -37 -70z m46 18 c9 -35 8 -38 -15 -38 -15 0
-19 4 -15 16 3 9 6 22 6 30 0 22 17 16 24 -8z"/>
<path d="M5858 163 c7 -3 12 -26 12 -63 0 -37 -5 -60 -12 -63 -7 -3 10 -6 38
-6 39 -1 53 3 58 15 9 24 -3 32 -15 11 -6 -9 -19 -17 -29 -17 -18 0 -20 7 -20
59 0 38 4 61 13 64 6 3 -4 5 -23 5 -19 0 -29 -2 -22 -5z"/>
<path d="M6047 163 c-2 -4 -12 -33 -22 -63 -10 -30 -23 -58 -29 -62 -6 -4 3
-7 19 -7 17 0 25 3 18 5 -22 10 -1 34 29 34 25 0 29 -3 25 -20 -4 -16 0 -20
19 -20 20 0 23 3 14 18 -6 9 -19 39 -29 67 -18 47 -34 65 -44 48z m23 -37 c0
-8 3 -21 6 -30 4 -12 0 -16 -15 -16 -23 0 -24 3 -15 38 7 24 24 30 24 8z"/>
<path d="M6255 100 l0 -70 47 0 c44 0 68 13 53 28 -3 3 -10 1 -14 -7 -12 -19
-55 -10 -59 13 -6 27 13 42 33 26 13 -10 15 -9 15 7 0 16 -5 19 -25 15 -22 -4
-25 -1 -25 22 0 20 5 26 23 26 13 0 29 -6 36 -12 11 -11 13 -10 9 2 -3 10 -20
16 -49 18 l-44 3 0 -71z"/>
<path d="M6414 154 c29 -28 37 -53 26 -73 -5 -11 -17 -27 -26 -35 -14 -15 -13
-16 13 -16 17 0 23 3 16 8 -10 6 -9 13 4 31 l16 24 13 -24 c7 -13 10 -27 8
-31 -3 -5 7 -8 23 -8 15 0 23 4 17 8 -15 10 -44 55 -44 68 0 6 11 23 25 38
l24 26 -24 0 c-15 0 -23 -5 -20 -12 3 -7 0 -20 -5 -28 -9 -13 -12 -12 -25 4
-12 16 -12 22 -2 28 7 5 -1 8 -21 8 -30 0 -32 -1 -18 -16z"/>
<path d="M6596 154 c-25 -24 -31 -64 -15 -93 12 -21 22 -26 54 -26 23 0 40 5
43 13 3 11 1 11 -17 0 -44 -27 -88 40 -57 87 19 29 43 32 62 8 12 -17 13 -16
14 5 0 19 -5 22 -34 22 -19 0 -42 -7 -50 -16z"/>
<path d="M6738 163 c7 -3 12 -26 12 -63 0 -37 -5 -60 -12 -63 -7 -3 13 -6 45
-6 47 -1 57 2 57 16 0 13 -3 14 -12 5 -7 -7 -22 -12 -35 -12 -19 0 -23 5 -23
30 0 32 9 37 28 18 9 -9 12 -7 12 9 0 16 -5 20 -20 16 -16 -4 -20 0 -20 21 0
28 26 36 48 14 9 -9 12 -8 12 5 0 14 -9 17 -52 16 -29 0 -47 -3 -40 -6z"/>
<path d="M6896 159 c4 -6 7 -33 7 -59 0 -26 -3 -53 -7 -59 -5 -7 8 -11 42 -11
41 0 51 3 55 20 6 24 -8 27 -17 4 -3 -9 -15 -14 -28 -12 -20 3 -23 10 -26 51
-2 27 2 55 9 63 9 11 7 14 -15 14 -18 0 -25 -4 -20 -11z"/>
<path d="M7048 163 c7 -3 12 -26 12 -63 0 -37 -5 -60 -12 -63 -7 -3 13 -6 45
-6 47 -1 57 2 57 16 0 13 -3 14 -12 5 -7 -7 -22 -12 -35 -12 -19 0 -23 5 -23
30 0 30 23 43 33 18 3 -7 6 -3 6 9 1 16 -3 20 -19 16 -16 -4 -20 0 -20 21 0
28 26 36 48 14 9 -9 12 -8 12 5 0 14 -9 17 -52 16 -29 0 -47 -3 -40 -6z"/>
<path d="M7205 100 c0 -56 3 -70 15 -70 12 0 14 12 12 57 l-4 58 39 -57 c21
-32 41 -58 46 -58 4 0 7 29 7 64 0 42 4 66 13 69 6 3 -1 6 -18 6 -20 0 -25 -2
-17 -8 9 -5 12 -23 10 -51 l-3 -43 -35 51 c-50 74 -65 69 -65 -18z"/>
<path d="M7406 154 c-25 -24 -31 -64 -15 -93 12 -21 22 -26 54 -26 23 0 40 5
43 13 3 11 1 11 -17 0 -44 -27 -88 40 -57 87 19 29 43 32 62 8 12 -17 13 -16
14 5 0 19 -5 22 -34 22 -19 0 -42 -7 -50 -16z"/>
<path d="M7548 163 c7 -3 12 -26 12 -63 0 -37 -5 -60 -12 -63 -7 -3 3 -5 22
-5 19 0 29 2 23 5 -8 3 -13 26 -13 63 0 37 5 60 13 63 6 3 -4 5 -23 5 -19 0
-29 -2 -22 -5z"/>
<path d="M7692 153 c-5 -10 -15 -36 -22 -58 -7 -22 -17 -46 -23 -52 -7 -10 -4
-13 11 -13 13 0 19 6 18 18 -1 13 7 17 29 17 22 0 30 -4 29 -17 -1 -11 5 -18
17 -18 17 0 17 4 -6 65 -14 36 -25 68 -25 70 0 12 -20 3 -28 -12z m26 -40 c10
-31 10 -33 -13 -33 -22 0 -23 2 -12 35 6 19 11 34 12 32 1 -1 7 -17 13 -34z"/>
<path d="M7905 100 l0 -70 30 1 c17 1 22 3 13 6 -30 8 -21 38 15 48 28 9 32
14 32 45 0 34 -1 35 -45 38 l-45 3 0 -71z m73 31 c4 -23 -11 -41 -35 -41 -8 0
-13 14 -13 36 0 31 3 35 23 32 14 -2 23 -11 25 -27z"/>
<path d="M8058 163 c7 -3 12 -26 12 -63 0 -37 -5 -60 -12 -63 -7 -3 13 -6 45
-6 47 -1 57 2 57 16 0 13 -3 14 -12 5 -7 -7 -22 -12 -35 -12 -19 0 -23 5 -23
30 0 32 9 37 28 18 9 -9 12 -7 12 9 0 16 -5 20 -20 16 -16 -4 -20 0 -20 21 0
28 26 36 48 14 9 -9 12 -8 12 5 0 14 -9 17 -52 16 -29 0 -47 -3 -40 -6z"/>
<path d="M8215 100 c0 -68 1 -70 25 -69 14 0 19 3 13 6 -18 7 -16 53 2 53 8 0
21 -13 30 -30 9 -17 22 -30 31 -30 12 0 11 6 -6 30 -17 24 -19 34 -10 45 6 8
10 24 8 37 -3 20 -10 23 -48 26 l-45 3 0 -71z m70 30 c0 -18 -6 -26 -22 -28
-20 -3 -23 1 -23 28 0 27 3 31 23 28 16 -2 22 -10 22 -28z"/>
<path d="M8390 155 c-17 -20 -6 -42 30 -63 17 -9 29 -24 28 -32 -5 -22 -40
-25 -55 -4 -12 17 -13 16 -13 -4 0 -18 6 -22 33 -22 64 0 77 46 22 79 -38 22
-44 38 -19 48 11 4 22 -1 30 -12 13 -18 14 -18 14 3 0 18 -6 22 -29 22 -16 0
-34 -7 -41 -15z"/>
<path d="M8536 148 c-22 -30 -20 -81 2 -101 44 -40 102 -6 102 59 0 59 -72 88
-104 42z m78 -20 c20 -57 -29 -115 -61 -72 -16 22 -17 58 -2 85 15 29 51 21
63 -13z"/>
<path d="M8698 163 c7 -3 12 -26 12 -63 0 -37 -5 -60 -12 -63 -7 -3 1 -5 17
-5 17 0 24 2 18 5 -8 3 -13 24 -13 56 l0 52 35 -52 c50 -74 55 -74 55 1 0 42
4 66 13 69 6 3 -1 6 -18 6 -20 0 -25 -2 -17 -8 9 -5 12 -24 10 -52 l-3 -44
-34 53 c-24 37 -39 52 -55 51 -11 0 -15 -3 -8 -6z"/>
<path d="M8920 166 c0 -3 -11 -35 -25 -71 -23 -61 -23 -65 -5 -65 13 0 17 5
13 20 -5 17 0 20 27 20 27 0 32 -3 27 -20 -4 -16 0 -20 20 -20 17 0 22 4 16
12 -4 7 -17 37 -28 67 -11 30 -26 56 -32 59 -7 2 -13 1 -13 -2z m24 -48 c9
-35 8 -38 -14 -38 -11 0 -20 3 -20 8 0 19 13 52 20 52 4 0 10 -10 14 -22z"/>
<path d="M9048 163 c7 -3 12 -26 12 -63 0 -37 -5 -60 -12 -63 -7 -3 10 -6 38
-6 39 -1 53 3 58 15 9 24 -3 32 -15 11 -6 -9 -19 -17 -29 -17 -18 0 -20 7 -20
59 0 38 4 61 13 64 6 3 -4 5 -23 5 -19 0 -29 -2 -22 -5z"/>
<path d="M2705 150 c-3 -5 1 -10 9 -10 9 0 16 5 16 10 0 6 -4 10 -9 10 -6 0
-13 -4 -16 -10z"/>
<path d="M2710 55 c0 -30 5 -55 10 -55 6 0 10 25 10 55 0 30 -4 55 -10 55 -5
0 -10 -25 -10 -55z"/>
<path d="M9210 40 c0 -5 5 -10 10 -10 6 0 10 5 10 10 0 6 -4 10 -10 10 -5 0
-10 -4 -10 -10z"/>
</g>
</svg>
